<svg id="logo-zend-reg" xmlns="http://www.w3.org/2000/svg" viewBox="0 0 407.91 177.77">
    <g>
      <path d="M111.02,47.73c-2-1.16-7.31-3.47-13.33,0L6.67,100.29c-6.02,3.47-6.67,9.23-6.67,11.55s.65,8.07,6.67,11.54l39.17,22.61,41.45-71.79c1.24,2.16,3.04,4.05,5.35,5.38s4.84,1.95,7.34,1.94l-41.45,71.79,39.17,22.61c6.02,3.47,11.33,1.16,13.33,0,2-1.16,6.67-4.6,6.67-11.55V59.28c0-6.95-4.66-10.39-6.67-11.55ZM40.5,125.93l-6.18-23.07c-1.05-3.91,1.27-7.93,5.18-8.97l23.07-6.18-22.07,38.22ZM101.64,141.72l-23.07,6.18,22.07-38.22,6.18,23.07c1.05,3.91-1.27,7.93-5.18,8.97Z" fill="#4c00ff"/>
      <g>
        <path d="M155.8,140.99l45.26-57.23h-44.14v-13.34h62.97v12.22l-45.76,57.23h45.88v13.34h-64.21v-12.22Z" fill="#00003a"/>
        <path d="M237.15,150.59c-4.45-2.41-7.9-5.9-10.35-10.47-2.45-4.57-3.68-9.89-3.68-15.96s1.27-11.43,3.8-16.08c2.53-4.65,6.03-8.29,10.47-10.91,4.45-2.62,9.5-3.93,15.15-3.93,8.89,0,15.85,2.72,20.88,8.17,5.03,5.45,7.54,12.86,7.54,22.26v5.11h-42.77c.5,4.32,2.06,7.65,4.68,9.97,2.62,2.33,6.05,3.49,10.29,3.49s7.23-.83,9.48-2.49c2.24-1.66,3.91-3.91,4.99-6.73l13.34,4.74c-2.24,5.07-5.65,9.08-10.22,12.03-4.57,2.95-10.47,4.43-17.71,4.43-6.15,0-11.45-1.2-15.9-3.62ZM261.65,108.44c-2.24-2.16-5.4-3.24-9.48-3.24-3.74,0-6.88,1.14-9.41,3.43-2.54,2.29-4.14,5.47-4.8,9.54h27.43c-.25-4.32-1.5-7.56-3.74-9.73Z" fill="#00003a"/>
        <path d="M288.34,94.35h15.34v9.48c1.58-3.49,3.82-6.15,6.73-7.98,2.91-1.83,6.4-2.74,10.47-2.74,6.48,0,11.51,2.12,15.09,6.36,3.57,4.24,5.36,10.35,5.36,18.33v35.41h-15.34v-34.41c0-4.16-.85-7.29-2.56-9.41-1.71-2.12-4.3-3.18-7.79-3.18-3.82,0-6.8,1.48-8.92,4.43-2.12,2.95-3.18,7.17-3.18,12.66v29.92h-15.21v-58.85Z" fill="#00003a"/>
        <path d="M361.53,150.77c-3.99-2.45-7.13-5.96-9.41-10.54-2.29-4.57-3.43-9.97-3.43-16.21s1.14-11.45,3.43-16.15c2.29-4.7,5.44-8.33,9.48-10.91,4.03-2.58,8.5-3.87,13.4-3.87,3.74,0,7.13.77,10.16,2.31,3.03,1.54,5.63,3.72,7.79,6.55v-32.67h14.96v83.91h-14.96v-7.61c-2.08,2.83-4.66,5.01-7.73,6.55-3.08,1.54-6.53,2.31-10.35,2.31-4.91,0-9.35-1.23-13.34-3.68ZM386.9,139.61c2.2-1.5,3.88-3.59,5.05-6.3,1.16-2.7,1.75-5.8,1.75-9.29v-1c0-3.57-.56-6.67-1.68-9.29s-2.79-4.61-4.99-5.99c-2.2-1.37-4.8-2.06-7.79-2.06-4.41,0-7.92,1.58-10.54,4.74-2.62,3.16-3.93,7.56-3.93,13.22v.87c0,5.74,1.29,10.06,3.87,12.97,2.58,2.91,6.11,4.36,10.6,4.36,2.91,0,5.46-.75,7.67-2.24Z" fill="#00003a"/>
      </g>
      <g>
        <path d="M190.12,34.38c-1.84-1.03-3.27-2.52-4.29-4.45-1.02-1.93-1.53-4.16-1.53-6.68s.53-4.77,1.58-6.73c1.05-1.96,2.5-3.5,4.34-4.6,1.84-1.1,3.92-1.66,6.23-1.66,3.65,0,6.51,1.13,8.58,3.39,2.07,2.26,3.1,5.36,3.1,9.29v1.74c0,.08-.07.15-.15.15h-18.41c-.09,0-.16.08-.15.17.2,2.06.91,3.7,2.14,4.91,1.26,1.25,2.96,1.87,5.1,1.87,1.96,0,3.49-.41,4.58-1.24,1.05-.8,1.86-1.83,2.42-3.1.03-.07.11-.11.19-.08l4.24,1.63c.08.03.12.13.08.21-.91,2-2.3,3.62-4.17,4.85-1.91,1.26-4.36,1.89-7.34,1.89-2.53,0-4.71-.52-6.55-1.55ZM201.04,16.1c-1.12-1.12-2.68-1.68-4.68-1.68-1.89,0-3.48.59-4.76,1.76-1.24,1.14-2,2.69-2.27,4.64-.01.09.06.17.15.17h13.24c.09,0,.16-.08.15-.16-.13-2.06-.74-3.64-1.83-4.73Z" fill="#00003a"/>
        <path d="M211.61,10.68h4.8c.08,0,.15.07.15.15v3.54c0,.16.23.21.29.06.43-1.13,1.08-2.04,1.97-2.72,1.12-.86,2.79-1.29,5-1.29h.59c.08,0,.15.07.15.15v4.75c0,.08-.07.15-.15.15h-2.17c-2.18,0-3.67.56-4.47,1.68-.81,1.12-1.21,3-1.21,5.63v12.58c0,.08-.07.15-.15.15h-4.8c-.08,0-.15-.07-.15-.15V10.83c0-.08.07-.15.15-.15Z" fill="#00003a"/>
        <path d="M237.05,5.87c.16-.51.47-.83.95-.97.47-.14,1.32-.21,2.55-.21h3.88c.08,0,.15-.07.15-.15V.15c0-.08-.07-.15-.15-.15h-6.03c-1.68.11-3,.44-3.95,1-.95.56-1.62,1.39-2.03,2.5-.4,1.1-.61,2.62-.61,4.55v2.48c0,.08-.07.15-.15.15h-4.01v4.37h4.01c.08,0,.15.07.15.15v20.17c0,.08.07.15.15.15h4.65c.08,0,.15-.07.15-.15V15.2c0-.08.07-.15.15-.15h4.8c.08,0,.15-.07.15-.15v-4.07c0-.08-.07-.15-.15-.15h-4.75c-.08,0-.15-.07-.15-.15v-2.06c0-1.23.08-2.1.24-2.6Z" fill="#00003a"/>
        <path d="M248.78,34.3c-1.88-1.09-3.34-2.6-4.39-4.52-1.05-1.93-1.58-4.14-1.58-6.63s.53-4.76,1.6-6.71c1.07-1.95,2.54-3.46,4.42-4.55,1.88-1.09,4.03-1.63,6.45-1.63s4.52.54,6.42,1.63c1.89,1.09,3.37,2.6,4.42,4.55,1.05,1.95,1.58,4.18,1.58,6.71,0,2.42-.54,4.61-1.6,6.58-1.07,1.96-2.56,3.49-4.47,4.58-1.91,1.09-4.06,1.63-6.45,1.63-2.39,0-4.52-.54-6.39-1.63ZM260.54,29.36c1.3-1.47,1.95-3.49,1.95-6.05v-.21c0-2.63-.64-4.71-1.92-6.23-1.28-1.53-3.04-2.29-5.29-2.29s-4.03.76-5.34,2.29c-1.32,1.53-1.97,3.6-1.97,6.23v.21c0,2.56.64,4.58,1.92,6.05,1.28,1.47,3.04,2.21,5.29,2.21,2.28,0,4.07-.74,5.37-2.21Z" fill="#00003a"/>
        <path d="M270.65,10.68h4.8c.08,0,.15.07.15.15v3.54c0,.16.23.21.29.06.43-1.13,1.08-2.04,1.97-2.72,1.12-.86,2.79-1.29,5-1.29h.59c.08,0,.15.07.15.15v4.75c0,.08-.07.15-.15.15h-2.17c-2.18,0-3.67.56-4.47,1.68-.81,1.12-1.21,3-1.21,5.63v12.58c0,.08-.07.15-.15.15h-4.8c-.08,0-.15-.07-.15-.15V10.83c0-.08.07-.15.15-.15Z" fill="#00003a"/>
        <path d="M290.21,34.3c-1.84-1.09-3.26-2.6-4.26-4.55-1-1.95-1.5-4.18-1.5-6.71,0-2.45.52-4.66,1.55-6.6,1.03-1.95,2.49-3.46,4.37-4.55,1.88-1.09,4.01-1.63,6.39-1.63,2.81,0,5.15.71,7.02,2.13,1.84,1.39,3.16,3.28,3.98,5.67.03.08-.02.17-.1.19l-4.6,1.48c-.08.03-.17-.02-.19-.1-.46-1.61-1.17-2.85-2.14-3.72s-2.36-1.34-4.08-1.34c-2.14,0-3.85.77-5.13,2.32-1.28,1.54-1.92,3.58-1.92,6.1v.21c0,2.53.61,4.56,1.84,6.1,1.23,1.54,2.91,2.32,5.05,2.32,1.93,0,3.4-.46,4.42-1.37.99-.89,1.73-2.2,2.22-3.95.02-.08.11-.13.19-.1l4.55,1.43c.08.03.13.12.1.2-.88,2.56-2.26,4.54-4.13,5.95-1.91,1.44-4.32,2.16-7.23,2.16-2.42,0-4.55-.54-6.39-1.63Z" fill="#00003a"/>
        <path d="M315.88,34.38c-1.84-1.03-3.27-2.52-4.29-4.45-1.02-1.93-1.53-4.16-1.53-6.68,0-2.53.53-4.77,1.58-6.73,1.05-1.96,2.5-3.5,4.34-4.6,1.84-1.1,3.92-1.66,6.23-1.66,3.65,0,6.51,1.13,8.58,3.39,2.07,2.26,3.1,5.36,3.1,9.29v1.74c0,.08-.07.15-.15.15h-18.41c-.09,0-.16.08-.15.17.2,2.06.91,3.7,2.14,4.91,1.26,1.25,2.96,1.87,5.1,1.87,1.96,0,3.49-.41,4.58-1.24,1.05-.8,1.86-1.83,2.42-3.1.03-.07.11-.11.19-.08l4.24,1.63c.08.03.12.13.08.21-.91,2-2.3,3.62-4.17,4.85-1.91,1.26-4.36,1.89-7.34,1.89-2.53,0-4.71-.52-6.55-1.55ZM326.8,16.1c-1.12-1.12-2.68-1.68-4.68-1.68-1.89,0-3.48.59-4.76,1.76-1.24,1.14-2,2.69-2.27,4.64-.01.09.06.17.15.17h13.24c.09,0,.16-.08.15-.16-.13-2.06-.74-3.64-1.83-4.73Z" fill="#00003a"/>
        <path d="M180.23,16.15c-.96-1.93-2.3-3.41-4-4.45-1.7-1.03-3.62-1.55-5.76-1.55-1.72,0-3.27.37-4.66,1.1-1.25.66-2.29,1.57-3.12,2.71-.09.12-.27.06-.27-.08v-3.05c0-.08-.07-.15-.15-.15h-4.7c-.08,0-.15.07-.15.15v34.32c0,.08.07.15.15.15h4.75c.08,0,.15-.07.15-.15v-8.96c0-.08.07-.15.15-.15h7.79c2.14,0,4.07-.53,5.79-1.6,1.72-1.07,3.06-2.6,4.02-4.58.96-1.98,1.45-4.27,1.45-6.87v-.05c0-2.6-.48-4.86-1.45-6.79ZM176.31,23.15c0,2.67-.65,4.75-1.95,6.26-1.3,1.51-3.02,2.26-5.16,2.26h0s-6.64,0-6.64,0c-.08,0-.15-.07-.15-.15v-11.15c.3-1.36.84-2.53,1.63-3.51,1.26-1.56,2.98-2.34,5.16-2.34,2.21,0,3.95.72,5.21,2.16,1.26,1.44,1.89,3.47,1.89,6.1v.37Z" fill="#00003a"/>
      </g>
    </g>
</svg>